<svg xmlns="http://www.w3.org/2000/svg" xmlns:xlink="http://www.w3.org/1999/xlink" width="25" height="25" class="icon" p-id="11377" t="1599204755033" version="1.1" viewBox="0 0 1024 1024"><defs><style type="text/css"/></defs><path fill="#BEC4C0" d="M976 384 784 384c-26.4 0-48-21.6-48-48 0-26.4 21.6-48 48-48l78.4 0C788.8 172.8 659.2 96 512 96c-229.6 0-416 186.4-416 416 0 229.6 186.4 416 416 416 224 0 407.2-177.6 415.2-400l0.8 0c0-26.4 21.6-48 48-48 26.4 0 48 21.6 48 48 0 3.2 0 6.4-0.8 8.8C1010.4 808 786.4 1024 512 1024 229.6 1024 0 794.4 0 512 0 229.6 229.6 0 512 0c171.2 0 323.2 84 416 213.6L928 144c0-26.4 21.6-48 48-48 26.4 0 48 21.6 48 48l0 192C1024 362.4 1002.4 384 976 384z" p-id="11378"/></svg>