<svg xmlns="http://www.w3.org/2000/svg" xmlns:xlink="http://www.w3.org/1999/xlink" width="25" height="25" class="icon" p-id="3551" t="1602075656468" version="1.1" viewBox="0 0 1024 1024"><defs><style type="text/css"/></defs><path fill="#87939a" d="M702.43 128H64v768h896V128H702.43z m-96 96v128H416V224h190.43z m0 224v128H416V448h190.43zM160 224h160v128H160V224z m0 224h160v128H160V448z m0 352V672h160v128H160z m256 0V672h190.43v128H416z m448 0H702.43V672H864v128z m0-224H702.43V448H864v128zM702.43 352V224H864v128H702.43z" p-id="3552"/></svg>